<svg width="500" height="518" viewBox="0 0 500 518" fill="none" xmlns="http://www.w3.org/2000/svg">
<g clip-path="url(#clip0_15_30)">
<path fill-rule="evenodd" clip-rule="evenodd" d="M296.849 367.624C316.562 331.147 321.736 325.828 353.246 309.689C371.91 300.136 382.804 296.006 386.076 297.247C395.46 300.804 439.462 352.925 445.981 368.188C453.863 386.661 453.264 398.201 442.925 426.652C433.576 452.413 428.186 457.194 399.766 464.924C363.576 474.773 347.595 468.942 316.241 434.443C298.767 415.216 284.132 395.867 284.297 392.196C284.332 391.381 289.983 380.327 296.849 367.624ZM327.83 412.5C360.069 447.632 365.495 449.836 396.892 440.578C416.128 434.903 419.279 430.903 426.163 403.363C430.781 384.89 426.128 374.235 400.842 345.325L380.712 322.314L367.934 328.865C339.522 343.424 334.583 347.789 322.239 369.22C315.651 380.656 310.208 390.704 310.139 391.554C310.078 392.404 318.038 401.827 327.83 412.5Z" fill="white"/>
<path fill-rule="evenodd" clip-rule="evenodd" d="M463.906 346.435C470.937 336.041 487.578 296.657 491.458 281.23C496.137 262.636 496.146 258.835 491.58 241.36C484.149 212.892 467.543 176.025 462.378 176.424C461.345 176.502 440.851 198.072 440.851 198.072L449.93 218.384C467.457 257.534 467.448 260.102 449.835 303.095L440.92 324.856C440.92 324.856 460.46 351.52 463.906 346.435Z" fill="white"/>
<path fill-rule="evenodd" clip-rule="evenodd" d="M360.677 203.001C324.184 183.287 318.863 178.116 302.717 146.619C293.16 127.973 289.028 117.084 290.269 113.813C293.828 104.433 345.972 60.442 361.241 53.9345C379.722 46.0473 391.267 46.6547 419.731 56.98C445.504 66.3248 450.287 71.7218 458.021 100.121C467.873 136.303 462.04 152.268 427.526 183.617C408.29 201.083 388.924 215.712 385.261 215.547C384.445 215.504 373.386 209.864 360.677 203.001ZM405.573 172.033C440.721 139.799 442.925 134.385 433.663 103.001C427.986 83.7737 423.984 80.6241 396.432 73.7434C377.951 69.1187 367.292 73.7695 338.368 99.0534L315.347 119.175L321.901 131.947C336.467 160.346 340.833 165.283 362.274 177.621C373.715 184.207 383.767 189.647 384.618 189.708C385.469 189.777 394.896 181.821 405.573 172.033Z" fill="white"/>
<path fill-rule="evenodd" clip-rule="evenodd" d="M339.479 36.0084C329.08 28.9802 289.679 12.3556 274.245 8.46847C255.642 3.80039 251.84 3.78304 234.358 8.347C205.877 15.7829 168.993 32.3815 169.392 37.5355C169.47 38.568 191.05 59.0624 191.05 59.0624L211.372 49.9779C250.538 32.4683 253.108 32.4683 296.12 50.0733L317.891 58.993C317.891 58.993 344.566 39.453 339.479 36.0084Z" fill="white"/>
<path fill-rule="evenodd" clip-rule="evenodd" d="M200.868 151.66C181.146 188.146 175.972 193.465 144.462 209.603C125.807 219.157 114.913 223.287 111.641 222.037C102.257 218.48 58.2465 166.367 51.7275 151.105C43.8455 132.632 44.4531 121.092 54.783 92.6413C64.132 66.8801 69.5226 62.0993 97.9427 54.3683C134.132 44.5202 150.113 50.3423 181.476 84.8496C198.95 104.069 213.585 123.426 213.411 127.097C213.377 127.903 207.734 138.966 200.868 151.66ZM169.878 106.793C137.639 71.661 132.222 69.4571 100.825 78.7152C81.5799 84.3897 78.4375 88.3897 71.5452 115.921C66.9271 134.394 71.5799 145.057 96.875 173.968L116.997 196.979L129.783 190.428C158.194 175.86 163.134 171.504 175.477 150.073C182.057 138.637 187.5 128.58 187.569 127.73C187.639 126.88 179.67 117.457 169.878 106.793Z" fill="white"/>
<path fill-rule="evenodd" clip-rule="evenodd" d="M33.8021 172.858C26.7709 183.252 10.1302 222.627 6.25002 238.063C1.5712 256.657 1.56252 260.449 6.12849 277.933C13.5591 306.392 30.1736 343.26 35.3299 342.869C36.3629 342.782 56.8663 321.212 56.8663 321.212L47.7778 300.909C30.2604 261.759 30.2604 259.182 47.8733 216.189L56.7882 194.428C56.7882 194.428 37.2483 167.764 33.8021 172.858Z" fill="white"/>
<path fill-rule="evenodd" clip-rule="evenodd" d="M137.031 316.292C173.533 335.997 178.854 341.177 194.991 372.665C204.557 391.32 208.689 402.209 207.439 405.48C203.88 414.86 151.745 458.851 136.467 465.358C117.995 473.237 106.45 472.638 77.9774 462.313C52.2135 452.959 47.4219 447.571 39.6875 419.163C29.8351 382.99 35.6684 367.025 70.191 335.676C89.4184 318.21 108.785 303.581 112.457 303.746C113.264 303.781 124.323 309.429 137.031 316.292ZM92.1354 347.26C56.9965 379.494 54.7917 384.908 64.0538 416.292C69.7222 435.519 73.7326 438.669 101.276 445.549C119.757 450.165 130.425 445.515 159.34 420.239L182.361 400.118L175.807 387.346C161.241 358.947 156.875 354.01 135.443 341.672C124.002 335.086 113.941 329.646 113.09 329.585C112.24 329.516 102.812 337.472 92.1354 347.26Z" fill="white"/>
<path fill-rule="evenodd" clip-rule="evenodd" d="M158.238 483.276C168.628 490.304 208.029 506.937 223.472 510.816C242.066 515.492 245.868 515.51 263.359 510.937C291.832 503.51 328.715 486.911 328.316 481.757C328.238 480.716 306.658 460.23 306.658 460.23L286.337 469.315C247.179 486.825 244.601 486.825 201.589 469.211L179.818 460.3C179.818 460.3 153.142 479.831 158.238 483.276Z" fill="white"/>
<path fill-rule="evenodd" clip-rule="evenodd" d="M245.964 203.87C244.385 205.39 243.095 209.628 243.095 213.286C243.095 227.153 221.684 250.245 199.296 260.52L176.792 270.841L193.817 277.708C216.833 286.991 232.916 302.697 241.418 324.199C249.288 344.085 253.894 344.355 258.254 325.183C262.017 308.638 290.004 281.64 307.162 277.999C324.798 274.262 323.985 270.609 303.58 261.919C283.08 253.184 260.852 229.731 257.433 213.216C254.951 201.25 251.55 198.477 245.964 203.87Z" fill="white"/>
</g>
<defs>
<clipPath id="clip0_15_30">
<rect width="500" height="518" fill="white"/>
</clipPath>
</defs>
</svg>
