<svg xmlns="http://www.w3.org/2000/svg" xmlns:xlink="http://www.w3.org/1999/xlink" width="320" zoomAndPan="magnify" viewBox="0 0 240 239.999995" height="320" preserveAspectRatio="xMidYMid meet" version="1.0"><defs><g/><clipPath id="a57622ff2c"><path d="M 97 0.761719 L 235.441406 0.761719 L 235.441406 145 L 97 145 Z M 97 0.761719 " clip-rule="nonzero"/></clipPath><clipPath id="56daa1a0ed"><path d="M 0.199219 16 L 42 16 L 42 106 L 0.199219 106 Z M 0.199219 16 " clip-rule="nonzero"/></clipPath><clipPath id="bd6aa2fe28"><rect x="0" width="139" y="0" height="145"/></clipPath><clipPath id="d3aed39cb0"><rect x="0" width="236" y="0" height="169"/></clipPath></defs><g transform="matrix(1, 0, 0, 1, 0, 47)"><g clip-path="url(#d3aed39cb0)"><g clip-path="url(#a57622ff2c)"><g transform="matrix(1, 0, 0, 1, 97, -0.000000000000007105)"><g clip-path="url(#bd6aa2fe28)"><g clip-path="url(#56daa1a0ed)"><g fill="#181717" fill-opacity="1"><g transform="translate(0.367241, 105.519586)"><g><path d="M 23.0625 0 L 22.671875 -12.546875 L 18.75 -12.546875 L 18.359375 0 L 0.328125 0 L 10.84375 -88.84375 L 30.515625 -88.84375 L 41.09375 0 Z M 19.078125 -22.671875 L 22.34375 -22.671875 L 20.96875 -64.09375 L 20.3125 -64.09375 Z M 19.078125 -22.671875 "/></g></g></g></g><g fill="#181717" fill-opacity="1"><g transform="translate(40.04807, 105.519586)"><g><path d="M 39.71875 0 L 22.609375 0 L 21.296875 -32.078125 L 18.875 -32.078125 L 18.875 0 L 1.703125 0 L 1.703125 -88.84375 L 20.0625 -88.84375 C 23.976562 -88.84375 27.40625 -88.460938 30.34375 -87.703125 C 33.28125 -86.941406 35.554688 -85.523438 37.171875 -83.453125 C 38.785156 -81.390625 39.59375 -78.351562 39.59375 -74.34375 L 39.59375 -45.34375 C 39.59375 -43.070312 39.265625 -41.148438 38.609375 -39.578125 C 37.953125 -38.015625 37.015625 -36.734375 35.796875 -35.734375 Z M 20.578125 -42.140625 C 21.316406 -42.140625 21.835938 -42.34375 22.140625 -42.75 C 22.453125 -43.164062 22.609375 -43.875 22.609375 -44.875 L 22.609375 -73.828125 C 22.609375 -74.785156 22.453125 -75.445312 22.140625 -75.8125 C 21.835938 -76.1875 21.296875 -76.375 20.515625 -76.375 L 18.875 -76.375 L 18.875 -42.140625 Z M 20.578125 -42.140625 "/></g></g></g><g fill="#181717" fill-opacity="1"><g transform="translate(79.40224, 105.519586)"><g><path d="M 1.703125 0 L 1.703125 -88.84375 L 20.515625 -88.84375 L 22.078125 -76.4375 L 26.203125 -32.921875 L 27.109375 -32.921875 L 24.5 -88.84375 L 40.109375 -88.84375 L 40.109375 0 L 21.296875 0 L 19.734375 -12.21875 L 15.09375 -58.859375 L 14.171875 -58.921875 L 17.1875 0 Z M 1.703125 0 "/></g></g></g><g fill="#181717" fill-opacity="1"><g transform="translate(119.475055, 105.519586)"><g><path d="M 9.796875 1.3125 C 7.617188 1.3125 5.910156 1.054688 4.671875 0.546875 C 3.429688 0.046875 2.570312 -0.914062 2.09375 -2.34375 C 1.613281 -3.78125 1.375 -5.894531 1.375 -8.6875 C 1.375 -11.738281 1.613281 -14.015625 2.09375 -15.515625 C 2.570312 -17.015625 3.429688 -18.023438 4.671875 -18.546875 C 5.910156 -19.078125 7.617188 -19.34375 9.796875 -19.34375 C 12.015625 -19.34375 13.742188 -19.078125 14.984375 -18.546875 C 16.234375 -18.023438 17.097656 -17.015625 17.578125 -15.515625 C 18.054688 -14.015625 18.296875 -11.738281 18.296875 -8.6875 C 18.296875 -5.894531 18.054688 -3.78125 17.578125 -2.34375 C 17.097656 -0.914062 16.234375 0.046875 14.984375 0.546875 C 13.742188 1.054688 12.015625 1.3125 9.796875 1.3125 Z M 9.796875 1.3125 "/></g></g></g></g></g></g><g fill="#faf9f5" fill-opacity="1"><g transform="translate(3.475431, 92.076245)"><g><path d="M 148.160156 8.828125 C 149.027344 9.171875 149.667969 9.765625 150.085938 10.601562 C 150.371094 11.175781 150.515625 11.8125 150.515625 12.519531 C 150.515625 13.703125 150.160156 14.648438 149.445312 15.363281 L 147.261719 13.179688 L 149.78125 14.964844 C 146.816406 19.140625 142.933594 22.546875 138.125 25.191406 C 133.269531 27.863281 127.832031 29.195312 121.8125 29.195312 C 116.644531 29.195312 111.8125 28.445312 107.324219 26.9375 C 102.921875 25.460938 98.851562 23.5625 95.105469 21.238281 C 91.429688 18.957031 88.089844 16.53125 85.085938 13.957031 C 82.144531 11.4375 79.546875 9.046875 77.292969 6.796875 C 75.140625 4.644531 73.347656 2.925781 71.910156 1.648438 L 71.839844 1.589844 L 71.777344 1.523438 C 71.082031 0.832031 70.40625 0.214844 69.746094 -0.324219 C 69.078125 -0.863281 68.457031 -1.328125 67.882812 -1.714844 L 67.820312 -1.753906 C 66.128906 -2.945312 64.664062 -3.671875 63.421875 -3.941406 C 61.992188 -4.25 60.945312 -4.40625 60.289062 -4.40625 C 60.148438 -4.40625 60.035156 -4.402344 59.949219 -4.398438 C 59.925781 -4.398438 59.90625 -4.398438 59.898438 -4.398438 C 59.914062 -4.398438 59.941406 -4.402344 59.972656 -4.40625 L 59.726562 -4.367188 L 59.21875 -7.414062 L 61.824219 -5.753906 C 58.582031 -0.667969 55.613281 3.585938 52.914062 7.015625 C 50.171875 10.503906 47.621094 13.308594 45.265625 15.429688 C 42.84375 17.613281 40.523438 19.273438 38.308594 20.414062 C 36.078125 21.5625 33.859375 22.355469 31.65625 22.796875 L 31.050781 19.765625 L 31.898438 22.738281 C 30.960938 23.003906 30.019531 23.191406 29.074219 23.289062 C 28.195312 23.386719 27.34375 23.433594 26.519531 23.433594 C 23.25 23.433594 20.605469 22.945312 18.589844 21.972656 C 16.488281 20.957031 14.929688 19.683594 13.902344 18.144531 C 12.949219 16.714844 12.351562 15.320312 12.113281 13.960938 C 11.917969 12.851562 11.820312 12.039062 11.820312 11.53125 C 11.820312 10.320312 12.210938 9.324219 12.992188 8.542969 C 13.773438 7.761719 14.769531 7.371094 15.976562 7.371094 C 17.210938 7.371094 18.210938 7.792969 18.988281 8.632812 C 19.699219 9.402344 20.054688 10.367188 20.054688 11.53125 C 20.054688 11.378906 20.046875 11.25 20.027344 11.140625 C 20.035156 11.167969 20.042969 11.21875 20.054688 11.289062 C 20.085938 11.457031 20.136719 11.707031 20.199219 12.035156 C 20.261719 12.339844 20.460938 12.75 20.796875 13.273438 C 21.03125 13.636719 21.515625 13.992188 22.253906 14.34375 L 20.917969 17.132812 L 21.894531 14.199219 C 22.082031 14.261719 22.570312 14.433594 23.359375 14.714844 C 23.792969 14.871094 24.40625 14.949219 25.203125 14.949219 C 25.535156 14.949219 25.90625 14.925781 26.320312 14.882812 C 26.652344 14.847656 26.996094 14.777344 27.363281 14.667969 C 28.601562 14.3125 29.960938 13.625 31.441406 12.609375 C 32.992188 11.542969 34.8125 9.839844 36.898438 7.5 C 39.066406 5.066406 41.585938 1.785156 44.449219 -2.339844 C 47.351562 -6.511719 50.730469 -11.808594 54.59375 -18.230469 L 56.570312 -21.519531 C 57.367188 -22.847656 58.191406 -24.3125 59.046875 -25.914062 L 59.089844 -25.996094 L 59.589844 -26.8125 C 59.898438 -27.324219 60.253906 -27.886719 60.648438 -28.507812 C 61.042969 -29.128906 61.359375 -29.617188 61.589844 -29.964844 L 64.160156 -28.25 L 61.460938 -29.75 C 63.339844 -33.132812 65.15625 -36.765625 66.902344 -40.640625 C 68.625 -44.453125 70.027344 -48.265625 71.113281 -52.074219 C 72.160156 -55.75 72.683594 -59.148438 72.683594 -62.265625 C 72.683594 -65.621094 71.832031 -68.390625 70.125 -70.578125 C 68.5625 -72.582031 65.640625 -73.699219 61.363281 -73.921875 L 61.523438 -77.007812 L 61.523438 -73.917969 L 60.535156 -73.917969 C 57.117188 -73.917969 53.242188 -72.988281 48.90625 -71.125 C 44.441406 -69.203125 39.902344 -66.394531 35.289062 -62.695312 C 30.652344 -58.984375 26.296875 -54.453125 22.222656 -49.109375 C 21.007812 -47.46875 19.863281 -45.847656 18.796875 -44.246094 C 17.730469 -42.648438 16.746094 -41.078125 15.84375 -39.535156 C 14.558594 -37.328125 13.523438 -35.179688 12.730469 -33.085938 C 11.902344 -30.890625 11.191406 -28.859375 10.605469 -26.996094 L 7.660156 -27.921875 L 10.628906 -27.070312 L 10.449219 -26.441406 L 10.433594 -26.390625 C 9.820312 -24.507812 9.390625 -22.804688 9.144531 -21.285156 C 8.894531 -19.777344 8.773438 -18.390625 8.773438 -17.132812 C 8.773438 -14.5625 9.164062 -12.738281 9.949219 -11.660156 C 10.703125 -10.625 11.339844 -10.039062 11.847656 -9.898438 C 12.917969 -9.585938 13.964844 -9.429688 14.988281 -9.429688 C 16.855469 -9.429688 18.550781 -9.871094 20.078125 -10.75 C 21.921875 -11.808594 23.84375 -13.183594 25.84375 -14.875 C 28.75 -17.324219 31.316406 -20.226562 33.542969 -23.574219 C 35.824219 -27.007812 37.640625 -30.339844 38.992188 -33.5625 C 39.753906 -35.292969 40.320312 -36.929688 40.6875 -38.476562 C 41.074219 -40.09375 41.324219 -41.417969 41.449219 -42.453125 L 41.65625 -44.179688 L 44.722656 -43.816406 L 41.632812 -43.816406 C 41.632812 -45.519531 42.070312 -46.898438 42.941406 -47.949219 C 43.957031 -49.175781 45.347656 -49.789062 47.109375 -49.789062 L 47.257812 -49.789062 L 47.402344 -49.773438 C 48.84375 -49.636719 49.976562 -49.050781 50.8125 -48.023438 C 51.554688 -47.097656 51.929688 -45.945312 51.929688 -44.558594 C 51.929688 -43.898438 51.808594 -43.132812 51.574219 -42.261719 C 51.109375 -40.40625 50.492188 -38.53125 49.726562 -36.640625 C 48.984375 -34.816406 48.242188 -33.144531 47.496094 -31.625 C 46.765625 -30.140625 46.160156 -28.945312 45.679688 -28.035156 L 44.980469 -26.71875 L 42.25 -28.167969 L 45.015625 -26.785156 C 43.402344 -23.5625 41.433594 -20.34375 39.113281 -17.132812 C 36.738281 -13.851562 34.082031 -10.976562 31.140625 -8.507812 C 28.390625 -6.234375 25.5625 -4.4375 22.648438 -3.117188 C 19.582031 -1.726562 16.449219 -1.03125 13.261719 -1.03125 L 12.765625 -1.03125 C 12.40625 -1.03125 12.019531 -1.046875 11.605469 -1.082031 C 11.359375 -1.101562 11.171875 -1.113281 11.035156 -1.113281 L 10.90625 -1.113281 L 10.773438 -1.121094 C 8.03125 -1.355469 5.675781 -2.085938 3.707031 -3.304688 C 1.652344 -4.578125 0.0703125 -6.34375 -1.042969 -8.601562 C -2.40625 -11.332031 -3.089844 -14.613281 -3.089844 -18.449219 L -3.089844 -19.257812 L -2.867188 -21.507812 C -2.71875 -23.035156 -2.355469 -25.09375 -1.78125 -27.683594 C -1.199219 -30.289062 -0.3125 -33.230469 0.886719 -36.515625 C 2.09375 -39.820312 3.722656 -43.339844 5.777344 -47.074219 C 7.847656 -50.84375 10.46875 -54.640625 13.640625 -58.46875 C 16.828125 -62.320312 20.679688 -66.011719 25.191406 -69.554688 C 31.203125 -74.25 37.128906 -77.710938 42.964844 -79.933594 C 48.863281 -82.183594 54.335938 -83.308594 59.382812 -83.308594 C 66.003906 -83.308594 71.480469 -81.503906 75.8125 -77.898438 C 80.261719 -74.199219 82.675781 -69.046875 83.054688 -62.441406 L 79.972656 -62.265625 L 83.03125 -62.683594 C 83.214844 -61.335938 83.308594 -59.878906 83.308594 -58.3125 C 83.308594 -53.671875 82.398438 -48.324219 80.582031 -42.269531 C 78.789062 -36.289062 75.972656 -29.851562 72.128906 -22.957031 L 69.429688 -24.460938 L 72.191406 -23.078125 C 72.113281 -22.917969 71.839844 -22.429688 71.371094 -21.609375 C 70.925781 -20.835938 70.414062 -19.949219 69.832031 -18.953125 C 69.25 -17.953125 68.667969 -16.96875 68.085938 -15.996094 L 66.726562 -13.730469 L 64.078125 -15.320312 L 66.808594 -13.878906 C 66.222656 -12.761719 65.617188 -11.714844 64.996094 -10.738281 C 64.414062 -9.824219 63.820312 -8.898438 63.210938 -7.957031 L 60.617188 -9.636719 L 60.097656 -12.679688 C 62.09375 -13.023438 63.839844 -13.523438 65.335938 -14.1875 C 66.753906 -14.820312 68.191406 -15.804688 69.644531 -17.140625 C 71.199219 -18.566406 72.917969 -20.570312 74.800781 -23.152344 C 76.765625 -25.84375 79.089844 -29.300781 81.769531 -33.527344 L 91.691406 -49.253906 C 95.804688 -55.847656 100.1875 -61.582031 104.835938 -66.457031 C 109.554688 -71.40625 114.402344 -75.25 119.378906 -77.984375 C 124.535156 -80.820312 129.601562 -82.238281 134.578125 -82.238281 C 137.484375 -82.238281 139.941406 -81.914062 141.949219 -81.265625 C 144.175781 -80.546875 145.996094 -79.40625 147.410156 -77.84375 L 145.121094 -75.773438 L 147.304688 -77.957031 C 148.40625 -76.855469 149.226562 -75.535156 149.765625 -73.992188 C 150.25 -72.613281 150.523438 -71.195312 150.59375 -69.742188 L 150.597656 -69.667969 L 150.597656 -69.59375 C 150.597656 -69.054688 150.476562 -68.539062 150.230469 -68.050781 C 150.421875 -68.429688 150.515625 -68.835938 150.515625 -69.265625 L 150.515625 -69.046875 L 150.484375 -68.828125 C 150.292969 -67.496094 149.746094 -66.433594 148.84375 -65.644531 C 147.929688 -64.847656 146.800781 -64.449219 145.449219 -64.449219 L 145.179688 -64.449219 L 144.914062 -64.496094 C 143.546875 -64.734375 142.503906 -65.425781 141.785156 -66.570312 C 141.234375 -67.445312 140.960938 -68.507812 140.960938 -69.761719 L 140.960938 -70.066406 L 141.105469 -70.777344 C 141.117188 -70.851562 141.125 -70.980469 141.125 -71.160156 C 141.125 -71.527344 140.996094 -72.03125 140.734375 -72.675781 C 140.71875 -72.714844 140.671875 -72.769531 140.597656 -72.832031 C 140.40625 -72.996094 140.113281 -73.152344 139.730469 -73.300781 L 140.835938 -76.183594 L 139.800781 -73.277344 C 139.230469 -73.476562 138.652344 -73.621094 138.070312 -73.699219 C 137.414062 -73.792969 136.769531 -73.835938 136.144531 -73.835938 C 134.894531 -73.835938 133.851562 -73.738281 133.007812 -73.546875 L 131.402344 -73.175781 L 130.707031 -76.183594 L 131.65625 -73.246094 C 130.160156 -72.761719 128.40625 -71.945312 126.398438 -70.789062 C 124.402344 -69.640625 122.101562 -67.867188 119.5 -65.46875 C 116.847656 -63.03125 113.847656 -59.667969 110.492188 -55.378906 C 107.097656 -51.042969 103.261719 -45.460938 98.980469 -38.632812 C 95.480469 -33.023438 92.320312 -28.308594 89.5 -24.480469 C 86.625 -20.582031 83.902344 -17.390625 81.335938 -14.910156 C 78.703125 -12.367188 76.105469 -10.371094 73.542969 -8.921875 C 70.976562 -7.472656 68.300781 -6.386719 65.515625 -5.660156 L 64.734375 -8.648438 L 65.195312 -11.703125 C 66.464844 -11.511719 68.058594 -11.101562 69.980469 -10.472656 C 71.941406 -9.828125 74.273438 -8.726562 76.984375 -7.164062 C 79.65625 -5.625 82.734375 -3.429688 86.214844 -0.578125 C 89.410156 2.023438 92.378906 4.34375 95.117188 6.375 C 97.789062 8.359375 100.417969 10.089844 103 11.566406 C 105.503906 12.996094 108.117188 14.144531 110.847656 15.011719 C 113.601562 15.886719 116.691406 16.53125 120.125 16.949219 C 121.628906 17.097656 123.121094 17.171875 124.613281 17.171875 C 128.683594 17.171875 132.441406 16.523438 135.878906 15.230469 C 139.09375 14.015625 141.511719 12.3125 143.125 10.113281 L 143.265625 9.925781 L 143.429688 9.757812 C 144.308594 8.878906 145.339844 8.441406 146.519531 8.441406 C 147.117188 8.441406 147.742188 8.605469 148.394531 8.933594 L 147.015625 11.695312 Z M 145.867188 14.5625 L 145.75 14.515625 L 145.632812 14.457031 C 145.847656 14.566406 146.144531 14.621094 146.519531 14.621094 C 147.042969 14.621094 147.46875 14.453125 147.796875 14.125 L 145.613281 11.941406 L 148.105469 13.769531 C 145.765625 16.953125 142.417969 19.367188 138.054688 21.007812 C 133.917969 22.570312 129.433594 23.347656 124.613281 23.347656 C 122.917969 23.347656 121.175781 23.257812 119.382812 23.078125 C 115.566406 22.617188 112.097656 21.890625 108.976562 20.898438 C 105.828125 19.898438 102.816406 18.574219 99.9375 16.929688 C 97.140625 15.332031 94.304688 13.464844 91.433594 11.332031 C 88.625 9.246094 85.578125 6.871094 82.296875 4.199219 C 79.078125 1.5625 76.28125 -0.441406 73.902344 -1.8125 C 71.558594 -3.160156 69.609375 -4.089844 68.054688 -4.601562 C 66.464844 -5.125 65.203125 -5.453125 64.277344 -5.59375 L 63.957031 -11.636719 C 66.222656 -12.226562 68.40625 -13.117188 70.507812 -14.300781 C 72.609375 -15.492188 74.789062 -17.175781 77.042969 -19.351562 C 79.363281 -21.59375 81.859375 -24.523438 84.527344 -28.148438 C 87.253906 -31.84375 90.328125 -36.433594 93.746094 -41.914062 C 98.140625 -48.925781 102.101562 -54.679688 105.625 -59.1875 C 109.1875 -63.738281 112.417969 -67.347656 115.3125 -70.015625 C 118.253906 -72.722656 120.925781 -74.765625 123.320312 -76.144531 C 125.703125 -77.515625 127.851562 -78.507812 129.757812 -79.125 L 129.882812 -79.164062 L 131.617188 -79.5625 C 132.917969 -79.863281 134.425781 -80.015625 136.144531 -80.015625 C 137.054688 -80.015625 137.976562 -79.949219 138.914062 -79.820312 C 139.917969 -79.679688 140.90625 -79.4375 141.875 -79.09375 L 141.910156 -79.082031 L 141.945312 -79.066406 C 144.207031 -78.195312 145.710938 -76.839844 146.460938 -74.996094 C 147.023438 -73.609375 147.304688 -72.332031 147.304688 -71.160156 C 147.304688 -70.570312 147.253906 -70.039062 147.160156 -69.566406 L 147.078125 -69.152344 L 144.050781 -69.761719 L 147.136719 -69.761719 C 147.136719 -69.660156 147.140625 -69.59375 147.148438 -69.5625 C 147.128906 -69.648438 147.085938 -69.75 147.011719 -69.863281 C 146.761719 -70.261719 146.417969 -70.5 145.988281 -70.578125 L 145.449219 -67.535156 L 145.449219 -70.625 C 145.417969 -70.625 145.363281 -70.613281 145.285156 -70.585938 C 145.101562 -70.53125 144.933594 -70.429688 144.773438 -70.292969 C 144.621094 -70.15625 144.5 -70.003906 144.421875 -69.835938 C 144.390625 -69.769531 144.371094 -69.726562 144.367188 -69.703125 L 147.425781 -69.265625 L 144.339844 -69.265625 C 144.339844 -69.808594 144.460938 -70.320312 144.707031 -70.8125 C 144.515625 -70.433594 144.421875 -70.027344 144.421875 -69.59375 L 147.507812 -69.59375 L 144.425781 -69.449219 C 144.382812 -70.300781 144.21875 -71.136719 143.933594 -71.953125 C 143.707031 -72.605469 143.375 -73.152344 142.9375 -73.589844 L 142.882812 -73.644531 L 142.832031 -73.699219 C 142.15625 -74.445312 141.230469 -75.007812 140.054688 -75.386719 C 138.660156 -75.835938 136.835938 -76.0625 134.578125 -76.0625 C 130.660156 -76.0625 126.585938 -74.898438 122.351562 -72.570312 C 117.9375 -70.144531 113.585938 -66.683594 109.304688 -62.191406 C 104.949219 -57.625 100.816406 -52.210938 96.914062 -45.957031 L 86.988281 -30.21875 C 84.234375 -25.878906 81.835938 -22.308594 79.789062 -19.511719 C 77.667969 -16.601562 75.679688 -14.296875 73.828125 -12.59375 C 71.875 -10.800781 69.882812 -9.449219 67.84375 -8.542969 C 65.878906 -7.671875 63.644531 -7.019531 61.136719 -6.589844 L 54.203125 -5.40625 L 58.023438 -11.3125 C 58.625 -12.242188 59.210938 -13.152344 59.78125 -14.054688 C 60.3125 -14.886719 60.835938 -15.789062 61.34375 -16.757812 L 61.382812 -16.835938 L 62.789062 -19.171875 C 63.359375 -20.125 63.925781 -21.085938 64.496094 -22.0625 C 65.070312 -23.042969 65.574219 -23.914062 66.007812 -24.675781 C 66.417969 -25.394531 66.640625 -25.785156 66.667969 -25.84375 L 66.699219 -25.90625 L 66.734375 -25.964844 C 70.355469 -32.46875 73.003906 -38.496094 74.667969 -44.042969 C 76.308594 -49.519531 77.132812 -54.277344 77.132812 -58.3125 C 77.132812 -59.601562 77.058594 -60.777344 76.914062 -61.847656 L 76.894531 -61.96875 L 76.890625 -62.085938 C 76.613281 -66.90625 74.933594 -70.59375 71.859375 -73.152344 C 68.671875 -75.804688 64.511719 -77.132812 59.382812 -77.132812 C 55.09375 -77.132812 50.355469 -76.140625 45.164062 -74.164062 C 39.90625 -72.160156 34.519531 -69.003906 29.003906 -64.695312 C 24.839844 -61.425781 21.304688 -58.039062 18.398438 -54.53125 C 15.476562 -51 13.074219 -47.523438 11.191406 -44.097656 C 9.289062 -40.640625 7.789062 -37.40625 6.691406 -34.398438 C 5.582031 -31.367188 4.769531 -28.683594 4.25 -26.34375 C 3.726562 -23.996094 3.40625 -22.183594 3.28125 -20.90625 L 3.074219 -18.804688 L 0 -19.109375 L 3.089844 -19.109375 L 3.089844 -18.449219 C 3.089844 -15.585938 3.558594 -13.210938 4.5 -11.328125 C 5.089844 -10.128906 5.910156 -9.207031 6.960938 -8.554688 C 8.09375 -7.855469 9.539062 -7.429688 11.300781 -7.277344 L 11.035156 -4.199219 L 11.035156 -7.289062 C 11.339844 -7.289062 11.703125 -7.273438 12.117188 -7.238281 C 12.359375 -7.21875 12.578125 -7.207031 12.765625 -7.207031 L 13.261719 -7.207031 C 15.558594 -7.207031 17.839844 -7.71875 20.097656 -8.742188 C 22.511719 -9.835938 24.867188 -11.335938 27.167969 -13.238281 C 29.71875 -15.378906 32.03125 -17.882812 34.105469 -20.753906 C 36.230469 -23.691406 38.027344 -26.625 39.488281 -29.546875 L 39.507812 -29.582031 L 40.222656 -30.933594 C 40.675781 -31.785156 41.25 -32.921875 41.949219 -34.347656 C 42.632812 -35.734375 43.316406 -37.277344 44.003906 -38.964844 C 44.660156 -40.589844 45.199219 -42.230469 45.613281 -43.886719 C 45.707031 -44.226562 45.75 -44.449219 45.75 -44.558594 C 45.75 -44.59375 45.75 -44.625 45.746094 -44.644531 C 45.75 -44.632812 45.753906 -44.613281 45.761719 -44.589844 C 45.804688 -44.4375 45.886719 -44.289062 46.003906 -44.140625 C 46.15625 -43.953125 46.332031 -43.8125 46.539062 -43.714844 C 46.652344 -43.660156 46.746094 -43.632812 46.816406 -43.625 L 47.109375 -46.699219 L 47.109375 -43.609375 C 47.085938 -43.609375 47.074219 -43.609375 47.074219 -43.609375 C 47.117188 -43.617188 47.164062 -43.632812 47.21875 -43.652344 C 47.402344 -43.726562 47.5625 -43.847656 47.699219 -44.007812 C 47.78125 -44.105469 47.832031 -44.191406 47.847656 -44.253906 C 47.824219 -44.164062 47.8125 -44.015625 47.8125 -43.816406 L 47.8125 -43.632812 L 47.582031 -41.722656 C 47.433594 -40.449219 47.136719 -38.890625 46.695312 -37.046875 C 46.242188 -35.136719 45.570312 -33.175781 44.6875 -31.171875 C 43.183594 -27.589844 41.183594 -23.917969 38.6875 -20.160156 C 36.136719 -16.316406 33.183594 -12.984375 29.832031 -10.160156 C 27.550781 -8.230469 25.324219 -6.640625 23.160156 -5.394531 C 20.679688 -3.96875 17.957031 -3.253906 14.988281 -3.253906 C 13.378906 -3.253906 11.789062 -3.480469 10.222656 -3.9375 C 8.320312 -4.457031 6.5625 -5.820312 4.957031 -8.023438 C 3.382812 -10.183594 2.59375 -13.222656 2.59375 -17.132812 C 2.59375 -18.726562 2.746094 -20.445312 3.046875 -22.285156 C 3.347656 -24.113281 3.851562 -26.117188 4.558594 -28.296875 L 7.496094 -27.34375 L 4.523438 -28.191406 L 4.699219 -28.808594 L 4.714844 -28.847656 C 5.335938 -30.824219 6.082031 -32.964844 6.953125 -35.273438 C 7.863281 -37.683594 9.050781 -40.144531 10.511719 -42.660156 C 11.476562 -44.304688 12.523438 -45.972656 13.65625 -47.671875 C 14.78125 -49.359375 16 -51.089844 17.308594 -52.855469 C 21.691406 -58.601562 26.394531 -63.488281 31.425781 -67.515625 C 36.476562 -71.5625 41.488281 -74.65625 46.464844 -76.796875 C 51.578125 -78.996094 56.269531 -80.097656 60.535156 -80.097656 L 61.605469 -80.097656 L 61.6875 -80.09375 C 67.839844 -79.769531 72.277344 -77.863281 74.996094 -74.378906 C 77.574219 -71.074219 78.859375 -67.035156 78.859375 -62.265625 C 78.859375 -58.574219 78.257812 -54.613281 77.054688 -50.382812 C 75.886719 -46.285156 74.378906 -42.1875 72.535156 -38.097656 C 70.714844 -34.066406 68.824219 -30.285156 66.859375 -26.75 L 66.796875 -26.640625 L 66.730469 -26.535156 C 66.523438 -26.226562 66.230469 -25.777344 65.859375 -25.191406 C 65.484375 -24.601562 65.152344 -24.070312 64.859375 -23.59375 L 64.40625 -22.851562 L 61.769531 -24.460938 L 64.496094 -23.007812 C 63.59375 -21.316406 62.714844 -19.757812 61.867188 -18.34375 L 59.886719 -15.042969 C 55.953125 -8.507812 52.5 -3.097656 49.523438 1.1875 C 46.515625 5.515625 43.84375 8.992188 41.507812 11.609375 C 39.09375 14.320312 36.902344 16.351562 34.941406 17.699219 C 32.90625 19.097656 30.972656 20.058594 29.136719 20.582031 C 28.402344 20.804688 27.679688 20.953125 26.96875 21.027344 C 26.339844 21.09375 25.75 21.125 25.203125 21.125 C 23.691406 21.125 22.386719 20.929688 21.28125 20.535156 C 20.53125 20.265625 20.085938 20.109375 19.941406 20.0625 L 19.761719 20 L 19.585938 19.917969 C 17.796875 19.0625 16.472656 17.964844 15.605469 16.621094 C 14.84375 15.441406 14.359375 14.316406 14.144531 13.25 C 13.964844 12.363281 13.878906 11.789062 13.878906 11.53125 C 13.878906 11.980469 14.070312 12.410156 14.449219 12.824219 C 14.898438 13.304688 15.40625 13.546875 15.976562 13.546875 C 16.472656 13.546875 16.933594 13.335938 17.359375 12.910156 C 17.785156 12.488281 17.996094 12.027344 17.996094 11.53125 C 17.996094 11.679688 18.0625 12.132812 18.195312 12.886719 C 18.285156 13.394531 18.566406 14.007812 19.042969 14.71875 C 19.445312 15.320312 20.1875 15.882812 21.273438 16.410156 C 22.441406 16.972656 24.191406 17.253906 26.519531 17.253906 C 27.125 17.253906 27.753906 17.21875 28.414062 17.148438 C 29.007812 17.085938 29.601562 16.96875 30.203125 16.796875 L 30.320312 16.761719 L 30.445312 16.738281 C 32.085938 16.410156 33.765625 15.804688 35.484375 14.917969 C 37.222656 14.027344 39.105469 12.667969 41.128906 10.84375 C 43.222656 8.957031 45.535156 6.40625 48.058594 3.195312 C 50.632812 -0.0742188 53.484375 -4.164062 56.613281 -9.074219 L 57.351562 -10.234375 L 58.957031 -10.5 C 59.289062 -10.554688 59.734375 -10.582031 60.289062 -10.582031 C 61.386719 -10.582031 62.867188 -10.382812 64.730469 -9.976562 C 66.785156 -9.53125 69 -8.476562 71.371094 -6.808594 L 69.59375 -4.28125 L 71.308594 -6.851562 C 72.050781 -6.359375 72.828125 -5.777344 73.644531 -5.113281 C 74.46875 -4.441406 75.300781 -3.6875 76.144531 -2.84375 L 73.960938 -0.660156 L 76.011719 -2.96875 C 77.539062 -1.609375 79.421875 0.1875 81.664062 2.429688 C 83.804688 4.570312 86.285156 6.847656 89.105469 9.269531 C 91.871094 11.636719 94.953125 13.875 98.359375 15.988281 C 101.699219 18.058594 105.339844 19.757812 109.289062 21.082031 C 113.140625 22.375 117.316406 23.019531 121.8125 23.019531 C 126.773438 23.019531 131.21875 21.9375 135.148438 19.777344 C 139.128906 17.589844 142.328125 14.792969 144.742188 11.390625 L 144.894531 11.175781 L 145.078125 10.992188 C 144.730469 11.34375 144.5 11.738281 144.390625 12.179688 C 144.355469 12.316406 144.339844 12.429688 144.339844 12.519531 C 144.339844 12.785156 144.414062 13.066406 144.5625 13.363281 C 144.84375 13.929688 145.277344 14.328125 145.867188 14.5625 Z M 145.867188 14.5625 "/></g></g></g><g fill="#181717" fill-opacity="1"><g transform="translate(3.475431, 92.076245)"><g><path d="M 147.015625 11.6875 C 147.285156 11.800781 147.421875 12.078125 147.421875 12.515625 C 147.421875 12.847656 147.367188 13.066406 147.265625 13.171875 C 144.566406 16.960938 141.019531 20.066406 136.625 22.484375 C 132.238281 24.898438 127.300781 26.109375 121.8125 26.109375 C 116.976562 26.109375 112.472656 25.40625 108.296875 24 C 104.128906 22.601562 100.273438 20.804688 96.734375 18.609375 C 93.191406 16.410156 89.976562 14.078125 87.09375 11.609375 C 84.207031 9.140625 81.664062 6.804688 79.46875 4.609375 C 77.28125 2.410156 75.441406 0.65625 73.953125 -0.65625 C 73.191406 -1.425781 72.4375 -2.113281 71.6875 -2.71875 C 70.945312 -3.320312 70.25 -3.84375 69.59375 -4.28125 C 67.5625 -5.707031 65.722656 -6.597656 64.078125 -6.953125 C 62.429688 -7.316406 61.164062 -7.5 60.28125 -7.5 C 59.894531 -7.5 59.617188 -7.484375 59.453125 -7.453125 C 59.296875 -7.421875 59.21875 -7.40625 59.21875 -7.40625 C 56.03125 -2.414062 53.117188 1.75 50.484375 5.09375 C 47.847656 8.445312 45.414062 11.125 43.1875 13.125 C 40.96875 15.132812 38.867188 16.644531 36.890625 17.65625 C 34.921875 18.675781 32.972656 19.378906 31.046875 19.765625 C 30.273438 19.984375 29.503906 20.132812 28.734375 20.21875 C 27.972656 20.300781 27.234375 20.34375 26.515625 20.34375 C 23.710938 20.34375 21.515625 19.957031 19.921875 19.1875 C 18.335938 18.414062 17.1875 17.492188 16.46875 16.421875 C 15.757812 15.359375 15.320312 14.359375 15.15625 13.421875 C 14.988281 12.492188 14.90625 11.863281 14.90625 11.53125 C 14.90625 10.8125 15.265625 10.453125 15.984375 10.453125 C 16.640625 10.453125 16.96875 10.8125 16.96875 11.53125 C 16.96875 11.582031 17.035156 11.953125 17.171875 12.640625 C 17.304688 13.328125 17.648438 14.09375 18.203125 14.9375 C 18.753906 15.789062 19.660156 16.519531 20.921875 17.125 C 21.085938 17.1875 21.550781 17.351562 22.3125 17.625 C 23.082031 17.894531 24.046875 18.03125 25.203125 18.03125 C 25.640625 18.03125 26.117188 18.003906 26.640625 17.953125 C 27.160156 17.898438 27.695312 17.789062 28.25 17.625 C 29.789062 17.1875 31.4375 16.363281 33.1875 15.15625 C 34.945312 13.945312 36.953125 12.078125 39.203125 9.546875 C 41.453125 7.023438 44.046875 3.648438 46.984375 -0.578125 C 49.921875 -4.804688 53.335938 -10.160156 57.234375 -16.640625 C 57.734375 -17.460938 58.394531 -18.554688 59.21875 -19.921875 C 60.039062 -21.296875 60.890625 -22.804688 61.765625 -24.453125 C 61.765625 -24.453125 61.914062 -24.695312 62.21875 -25.1875 C 62.519531 -25.6875 62.863281 -26.238281 63.25 -26.84375 C 63.632812 -27.445312 63.9375 -27.914062 64.15625 -28.25 C 66.082031 -31.707031 67.9375 -35.410156 69.71875 -39.359375 C 71.5 -43.316406 72.953125 -47.269531 74.078125 -51.21875 C 75.203125 -55.175781 75.765625 -58.859375 75.765625 -62.265625 C 75.765625 -66.328125 74.691406 -69.726562 72.546875 -72.46875 C 70.410156 -75.21875 66.734375 -76.726562 61.515625 -77 L 60.53125 -77 C 56.6875 -77 52.40625 -75.984375 47.6875 -73.953125 C 42.96875 -71.921875 38.191406 -68.96875 33.359375 -65.09375 C 28.523438 -61.226562 23.992188 -56.523438 19.765625 -50.984375 C 18.503906 -49.273438 17.320312 -47.597656 16.21875 -45.953125 C 15.125 -44.304688 14.109375 -42.6875 13.171875 -41.09375 C 11.804688 -38.738281 10.695312 -36.429688 9.84375 -34.171875 C 8.988281 -31.921875 8.257812 -29.835938 7.65625 -27.921875 L 7.5 -27.34375 C 6.832031 -25.3125 6.363281 -23.457031 6.09375 -21.78125 C 5.820312 -20.101562 5.6875 -18.550781 5.6875 -17.125 C 5.6875 -13.882812 6.273438 -11.453125 7.453125 -9.828125 C 8.628906 -8.210938 9.820312 -7.242188 11.03125 -6.921875 C 12.351562 -6.535156 13.671875 -6.34375 14.984375 -6.34375 C 17.398438 -6.34375 19.609375 -6.914062 21.609375 -8.0625 C 23.617188 -9.21875 25.695312 -10.703125 27.84375 -12.515625 C 30.96875 -15.148438 33.722656 -18.265625 36.109375 -21.859375 C 38.503906 -25.460938 40.414062 -28.96875 41.84375 -32.375 C 42.664062 -34.238281 43.28125 -36.035156 43.6875 -37.765625 C 44.101562 -39.492188 44.378906 -40.929688 44.515625 -42.078125 C 44.648438 -43.234375 44.71875 -43.8125 44.71875 -43.8125 C 44.71875 -45.738281 45.515625 -46.703125 47.109375 -46.703125 C 48.265625 -46.585938 48.84375 -45.875 48.84375 -44.5625 C 48.84375 -44.175781 48.757812 -43.679688 48.59375 -43.078125 C 48.15625 -41.316406 47.578125 -39.554688 46.859375 -37.796875 C 46.148438 -36.046875 45.4375 -34.441406 44.71875 -32.984375 C 44.007812 -31.523438 43.421875 -30.359375 42.953125 -29.484375 C 42.484375 -28.609375 42.25 -28.171875 42.25 -28.171875 C 40.707031 -25.097656 38.820312 -22.019531 36.59375 -18.9375 C 34.375 -15.863281 31.894531 -13.175781 29.15625 -10.875 C 26.625 -8.78125 24.023438 -7.128906 21.359375 -5.921875 C 18.703125 -4.722656 16.003906 -4.125 13.265625 -4.125 L 12.765625 -4.125 C 12.492188 -4.125 12.191406 -4.132812 11.859375 -4.15625 C 11.523438 -4.1875 11.25 -4.203125 11.03125 -4.203125 C 6.53125 -4.585938 3.429688 -6.507812 1.734375 -9.96875 C 0.578125 -12.269531 0 -15.097656 0 -18.453125 L 0 -19.109375 C 0 -19.109375 0.0664062 -19.804688 0.203125 -21.203125 C 0.335938 -22.609375 0.679688 -24.546875 1.234375 -27.015625 C 1.785156 -29.484375 2.632812 -32.296875 3.78125 -35.453125 C 4.9375 -38.609375 6.503906 -41.984375 8.484375 -45.578125 C 10.460938 -49.179688 12.972656 -52.820312 16.015625 -56.5 C 19.066406 -60.175781 22.757812 -63.71875 27.09375 -67.125 C 32.863281 -71.625 38.519531 -74.929688 44.0625 -77.046875 C 49.601562 -79.160156 54.707031 -80.21875 59.375 -80.21875 C 65.25 -80.21875 70.066406 -78.648438 73.828125 -75.515625 C 77.597656 -72.390625 79.644531 -67.972656 79.96875 -62.265625 C 80.132812 -61.054688 80.21875 -59.738281 80.21875 -58.3125 C 80.21875 -53.96875 79.351562 -48.914062 77.625 -43.15625 C 75.894531 -37.394531 73.160156 -31.160156 69.421875 -24.453125 C 69.367188 -24.347656 69.125 -23.910156 68.6875 -23.140625 C 68.25 -22.367188 67.738281 -21.488281 67.15625 -20.5 C 66.582031 -19.519531 66.003906 -18.546875 65.421875 -17.578125 C 64.847656 -16.617188 64.398438 -15.863281 64.078125 -15.3125 C 63.523438 -14.269531 62.957031 -13.296875 62.375 -12.390625 C 61.800781 -11.484375 61.210938 -10.566406 60.609375 -9.640625 C 62.867188 -10.023438 64.863281 -10.597656 66.59375 -11.359375 C 68.320312 -12.128906 70.035156 -13.296875 71.734375 -14.859375 C 73.429688 -16.429688 75.28125 -18.585938 77.28125 -21.328125 C 79.289062 -24.078125 81.65625 -27.59375 84.375 -31.875 C 87.09375 -36.15625 90.398438 -41.398438 94.296875 -47.609375 C 98.304688 -54.023438 102.5625 -59.59375 107.0625 -64.3125 C 111.570312 -69.039062 116.171875 -72.691406 120.859375 -75.265625 C 125.554688 -77.847656 130.128906 -79.140625 134.578125 -79.140625 C 137.160156 -79.140625 139.300781 -78.863281 141 -78.3125 C 142.695312 -77.769531 144.066406 -76.921875 145.109375 -75.765625 C 145.878906 -75.003906 146.457031 -74.070312 146.84375 -72.96875 C 147.226562 -71.875 147.445312 -70.75 147.5 -69.59375 C 147.5 -69.539062 147.484375 -69.484375 147.453125 -69.421875 C 147.429688 -69.367188 147.421875 -69.316406 147.421875 -69.265625 C 147.253906 -68.109375 146.597656 -67.53125 145.453125 -67.53125 C 144.515625 -67.695312 144.046875 -68.441406 144.046875 -69.765625 C 144.046875 -69.765625 144.070312 -69.898438 144.125 -70.171875 C 144.1875 -70.441406 144.21875 -70.769531 144.21875 -71.15625 C 144.21875 -71.925781 144.007812 -72.816406 143.59375 -73.828125 C 143.175781 -74.847656 142.253906 -75.632812 140.828125 -76.1875 C 140.066406 -76.457031 139.285156 -76.644531 138.484375 -76.75 C 137.691406 -76.863281 136.910156 -76.921875 136.140625 -76.921875 C 134.660156 -76.921875 133.382812 -76.796875 132.3125 -76.546875 C 131.238281 -76.304688 130.703125 -76.1875 130.703125 -76.1875 C 129.003906 -75.632812 127.054688 -74.722656 124.859375 -73.453125 C 122.660156 -72.191406 120.175781 -70.285156 117.40625 -67.734375 C 114.632812 -65.179688 111.515625 -61.695312 108.046875 -57.28125 C 104.585938 -52.863281 100.691406 -47.195312 96.359375 -40.28125 C 92.898438 -34.726562 89.785156 -30.070312 87.015625 -26.3125 C 84.242188 -22.550781 81.632812 -19.488281 79.1875 -17.125 C 76.75 -14.769531 74.359375 -12.929688 72.015625 -11.609375 C 69.679688 -10.296875 67.253906 -9.304688 64.734375 -8.640625 C 65.828125 -8.484375 67.253906 -8.113281 69.015625 -7.53125 C 70.773438 -6.957031 72.914062 -5.941406 75.4375 -4.484375 C 77.96875 -3.035156 80.90625 -0.9375 84.25 1.8125 C 87.488281 4.445312 90.492188 6.789062 93.265625 8.84375 C 96.046875 10.90625 98.78125 12.703125 101.46875 14.234375 C 104.15625 15.773438 106.96875 17.015625 109.90625 17.953125 C 112.84375 18.890625 116.125 19.578125 119.75 20.015625 C 121.394531 20.179688 123.015625 20.265625 124.609375 20.265625 C 129.054688 20.265625 133.171875 19.550781 136.953125 18.125 C 140.742188 16.695312 143.628906 14.632812 145.609375 11.9375 C 145.878906 11.664062 146.179688 11.53125 146.515625 11.53125 C 146.628906 11.53125 146.796875 11.582031 147.015625 11.6875 Z M 147.015625 11.6875 "/></g></g></g></g></g></svg>